<?xml version="1.0" encoding="utf-8"?>
<!-- Generator: Adobe Illustrator 16.0.4, SVG Export Plug-In . SVG Version: 6.00 Build 0)  -->
<!DOCTYPE svg PUBLIC "-//W3C//DTD SVG 1.1//EN" "http://www.w3.org/Graphics/SVG/1.1/DTD/svg11.dtd">
<svg version="1.1" id="Layer_1" xmlns="http://www.w3.org/2000/svg" xmlns:xlink="http://www.w3.org/1999/xlink" x="0px" y="0px"
	 width="58.56px" height="47.502px" viewBox="0 0 58.56 47.502" enable-background="new 0 0 58.56 47.502" xml:space="preserve">
<g>
	<path fill="#333333" d="M56.914,5.526c-0.085-0.079-0.17-0.157-0.255-0.236c0.253-0.292,0.666-0.502,0.967-0.742
		c0.468-0.374,0.716-0.586,0.898-1.165c0.146-0.465-0.243-0.851-0.675-0.886c-1.145-0.093-2.286-0.133-3.432-0.143
		c-0.065-0.721-0.309-1.374-0.753-2.003c-0.229-0.326-0.796-0.526-1.099-0.142c-0.933,1.185-1.604,2.446-2.054,3.868
		c-1.798-0.842-4.021-1.143-5.565-0.943c-2.648,0.342-5.049,2.018-7.479,2.979c-3.007,1.19-6.028,1.826-9.28,1.754
		c-3.299-0.073-5.876-0.887-8.841-2.314c-1.738-0.837-3.427-1.803-5.383-2.039C11.985,3.276,10.099,3.842,8.654,5
		C8.105,3.413,6.951,0.015,5.137,2.083C4.708,2.571,4.568,3.267,3.904,3.45c-0.439,0.122-0.896-0.04-1.332,0.216
		C1.529,4.278,1.993,5.318,2.1,6.264C1.085,6.857-0.641,7.538,0.245,8.976c0.364,0.591,1.054,0.668,1.676,0.68
		C3.296,9.682,4.691,9.568,6.07,9.507C4.755,17.34,17.015,21.187,22.986,22.21c-0.436,3.011-0.597,6.396,0.396,8.84
		c1.004,2.471,3.521,3.61,3.467,6.682c-0.055,3.029,0.082,6.069-0.056,9.096c-0.04,0.9,1.359,0.898,1.4,0
		c0.128-2.832-0.032-5.665,0.031-8.498c0.044-1.971,0.014-3.243-1.19-4.848c-1.805-2.405-2.902-4.175-2.81-7.339
		c0.062-2.103,0.229-4.311,0.617-6.392c0.94,0.074,1.89,0.007,2.828-0.132c-0.028,2.525,0.017,5.072,0.293,7.58
		c0.151,1.371,0.769,2.92,2.45,2.726c3.681-0.424,2.75-7.635,2.37-10.525c0.996-0.038,1.988-0.123,2.972-0.275
		c0.862,4.149,1.631,9.709-1.111,13.012c-1.429,1.72-2.295,2.415-2.233,4.76c0.086,3.31-0.084,6.624,0.062,9.932
		c0.039,0.897,1.439,0.902,1.4,0c-0.076-1.732-0.041-3.444,0.002-5.177c0.041-1.65-0.351-3.67-0.099-5.278
		c0.429-2.735,3.332-3.969,3.889-6.638c0.489-2.348,0.363-5.085,0.008-7.687c4.303-1.027,8.775-2.883,12.182-5.742
		c2.02-1.694,3.975-5.213,3.749-8.16c1.382,0.041,2.718,0.272,4.045,0.721c0.345,0.117,0.783-0.135,0.861-0.489
		C58.796,7.066,57.799,6.347,56.914,5.526z M39.362,6.813c0.429,0.414,0.857,0.834,1.229,1.3c0.25,0.313,0.483,0.652,0.663,1.012
		c0.132,0.255,0.232,0.521,0.302,0.799c0.165,0.332,0.065,0.489-0.297,0.471c-0.733,0.329-1.602-0.754-2.062-1.219
		c-0.534-0.539-1.066-1.081-1.599-1.622c0.081-0.031,0.162-0.058,0.242-0.09C38.356,7.262,38.862,7.04,39.362,6.813z M30.28,9.208
		c-0.005,0.121,0.016,0.248,0.101,0.38c0.292,0.448,0.563,0.905,0.796,1.386c0.154,0.32,0.497,0.891,0.539,1.344
		c-0.835,0.108-1.883-1.267-2.237-1.756c-0.301-0.415-0.566-0.854-0.821-1.299c0.04,0,0.079,0.002,0.119,0.002
		C29.284,9.264,29.783,9.24,30.28,9.208z M19.925,7.406c0.003,0.011,0.001,0.019,0.005,0.03c0.298,0.81,0.648,1.67,0.711,2.541
		c0.039,0.533,0.22,1.568-0.491,0.821c-0.304-0.319-0.556-0.712-0.806-1.073c-0.773-1.117-1.416-2.307-1.948-3.552
		C18.267,6.584,19.119,7.025,19.925,7.406z M1.992,7.854c0.301-0.359,1.021-0.316,1.324-0.731c0.227-0.31,0.221-0.587,0.186-0.96
		C3.481,5.946,3.214,5.386,3.297,5.193C3.51,4.697,3.921,4.883,4.3,4.843c0.373-0.039,0.744-0.121,1.042-0.369
		c0.37-0.311,0.537-1.391,1.218-0.957c0.418,0.266,0.739,1.885,0.925,2.359C7.512,5.948,7.556,6,7.598,6.054
		C7.115,6.65,6.722,7.336,6.442,8.099c-0.015,0-0.025-0.007-0.041-0.007C5.467,8.126,4.534,8.16,3.6,8.194
		C3.192,8.209,1.477,8.469,1.992,7.854z M31.003,28.02c-1.866,1.464-1.742-2.073-1.79-2.86c-0.045-0.744-0.067-1.488-0.092-2.232
		c0.828,0.039,1.646,0.005,2.472-0.106c0.01,0.408,0.037,0.816,0.032,1.226C31.613,25.025,31.811,27.387,31.003,28.02z
		 M47.107,16.52c-2.965,1.942-6.217,3.299-9.646,4.14c-0.104-0.617-0.218-1.216-0.336-1.797c0.02-0.005,0.04-0.007,0.061-0.012
		c0.877-0.203,0.506-1.554-0.373-1.35c-1.835,0.426-3.71,0.531-5.589,0.525c-0.901-0.003-0.902,1.397,0,1.4
		c0.048,0,0.096-0.003,0.144-0.003c0.074,0.678,0.147,1.355,0.189,2.035c-0.076-0.007-0.155-0.009-0.234,0.002
		c-0.742,0.104-1.491,0.111-2.238,0.07c-0.012-0.732-0.014-1.466-0.005-2.199c0.646-0.312,0.279-1.445-0.536-1.28
		c-1.567,0.315-3.202,0.519-4.771,0.113c-0.873-0.226-1.245,1.125-0.372,1.351c0.017,0.004,0.034,0.006,0.051,0.011
		c-0.083,0.418-0.163,0.852-0.243,1.306c-3.394-0.574-6.644-1.522-9.704-3.161C9.6,15.581,5.054,11.065,8.937,6.633
		c1.979-2.258,4.365-2.063,6.718-1.2c-0.003,0.083,0.006,0.17,0.043,0.267c0.524,1.388,1.153,2.726,1.943,3.984
		c0.584,0.928,1.359,2.35,2.424,2.807c0.86,0.37,1.588-0.078,1.846-0.952c0.329-1.117,0.095-2.302-0.259-3.409
		c1.744,0.626,3.531,0.957,5.369,1.078c0.967,1.786,2.397,4.446,4.664,4.502c2.711,0.068,0.831-3.357,0.023-4.642
		c1.512-0.194,2.989-0.532,4.455-1.007c0.023,0.033,0.034,0.068,0.065,0.099c1.19,1.208,4.179,5.252,6.271,3.362
		c1.61-1.457-0.439-3.948-1.78-5.329c2.597-1.185,5.134-2.186,8.158-1.106C55.001,7.274,50.735,14.144,47.107,16.52z M53.301,6.72
		c-0.29-0.765-0.85-1.4-1.556-1.918c0.278-0.986,0.665-1.886,1.196-2.729c0.078,0.299,0.109,0.614,0.089,0.972
		c-0.021,0.376,0.338,0.702,0.7,0.7c0.896-0.006,1.788,0.023,2.68,0.068c-0.636,0.403-1.408,0.741-1.37,1.516
		c0.037,0.734,1.128,1.25,1.735,1.827c-1.136-0.279-2.288-0.408-3.469-0.415C53.305,6.733,53.303,6.726,53.301,6.72z"/>
	<path fill="#333333" d="M19.111,17.371c-2.894-0.999-5.462-2.566-7.683-4.672c-0.654-0.62-1.646,0.368-0.99,0.99
		c2.396,2.272,5.18,3.955,8.301,5.033C19.592,19.017,19.958,17.664,19.111,17.371z"/>
	<path fill="#333333" d="M9.313,10.304c-0.901,0-0.902,1.4,0,1.4C10.213,11.704,10.215,10.304,9.313,10.304z"/>
</g>
</svg>
