<?xml version="1.0" encoding="utf-8"?>
<!-- Generator: Adobe Illustrator 16.0.4, SVG Export Plug-In . SVG Version: 6.00 Build 0)  -->
<!DOCTYPE svg PUBLIC "-//W3C//DTD SVG 1.1//EN" "http://www.w3.org/Graphics/SVG/1.1/DTD/svg11.dtd">
<svg version="1.1" id="Layer_1" xmlns="http://www.w3.org/2000/svg" xmlns:xlink="http://www.w3.org/1999/xlink" x="0px" y="0px"
	 width="137.669px" height="123.978px" viewBox="0 0 137.669 123.978" enable-background="new 0 0 137.669 123.978"
	 xml:space="preserve">
<g>
	<g>
		<g>
			<path fill="#D35C2A" d="M68.136,123.978c-16.147,0-27.44-9.427-28.031-9.925L4.98,83.875c-1.182-1.089-6.471-6.408-4.573-11.138
				c1.836-4.604,8.681-4.604,10.951-4.604c7.529,0,74.604-0.342,75.289-0.342l0,0c1.493,0,2.706,1.213,2.706,2.707
				c0,1.493-1.213,2.737-2.706,2.737c-0.685,0-67.76,0.342-75.289,0.342c-5.103,0-5.88,1.151-5.88,1.183
				c-0.28,0.653,1.213,3.267,3.173,5.103l35,30.084c0.125,0.125,15.308,12.693,34.472,7.218
				c20.627-5.911,40.351-11.854,40.538-11.915c0.249-0.094,0.528-0.125,0.777-0.125h15.524c1.493,0,2.707,1.214,2.707,2.707
				s-1.214,2.706-2.707,2.706h-15.12c-2.862,0.871-21.155,6.378-40.227,11.822C75.602,123.511,71.745,123.978,68.136,123.978z"/>
		</g>
		<g>
			<path fill="#D35C2A" d="M89.914,101.267H50.216c-0.094,0-0.188,0-0.312-0.031c-1.929-0.218-8.307-1.244-9.551-5.568
				c-0.747-2.645,0.684-5.414,4.293-8.245c9.769-7.622,39.729-19.009,41.005-19.507c0.279-0.124,7.652-2.924,15.524-2.924
				c6.253,0,18.479,6.844,21.684,8.711h12.103c1.493,0,2.707,1.213,2.707,2.707c0,1.493-1.214,2.706-2.707,2.706h-12.849
				c-0.498,0-0.965-0.124-1.4-0.373c-5.444-3.235-15.556-8.338-19.568-8.338c-6.876,0-13.503,2.551-13.564,2.551
				c-0.312,0.125-30.489,11.573-39.604,18.698c-1.773,1.369-2.24,2.209-2.365,2.488c0.561,0.592,2.801,1.369,4.698,1.587h38.827
				l7.56-4.293c1.307-0.747,2.956-0.28,3.702,1.026c0.747,1.307,0.28,2.956-1.026,3.702l-8.183,4.636
				C90.847,101.142,90.38,101.267,89.914,101.267z"/>
		</g>
		<g>
			
				<path fill="#D35C2A" stroke="#231F20" stroke-width="3" stroke-linecap="round" stroke-linejoin="round" stroke-miterlimit="10" d="
				M21.532,70.809"/>
		</g>
		<g>
			<path fill="#D35C2A" d="M39.42,89.413c-0.529,0-1.089-0.155-1.556-0.498L16.335,73.733c-1.213-0.871-1.524-2.552-0.653-3.796
				c0.871-1.213,2.552-1.524,3.796-0.653l21.529,15.183c1.213,0.871,1.524,2.551,0.653,3.795
				C41.131,89.009,40.292,89.413,39.42,89.413z"/>
		</g>
		<g>
			<path fill="#D35C2A" d="M51.865,82.413c-0.529,0-1.026-0.155-1.493-0.436l-13.596-8.96c-1.244-0.84-1.587-2.52-0.778-3.765
				c0.841-1.244,2.521-1.586,3.765-0.777l13.596,8.96c1.244,0.84,1.587,2.52,0.778,3.765C53.607,82.009,52.767,82.413,51.865,82.413
				z"/>
		</g>
		<g>
			<path fill="#D35C2A" d="M63.905,77.809c-0.529,0-1.058-0.155-1.524-0.467l-6.254-4.262c-1.244-0.84-1.555-2.552-0.715-3.796
				s2.551-1.556,3.795-0.716l6.254,4.263c1.244,0.84,1.556,2.551,0.715,3.796C65.647,77.404,64.776,77.809,63.905,77.809z"/>
		</g>
	</g>
	<g>
		<g>
			<g>
				<path fill="#D35C2A" d="M39.856,23.831c-6.564,0-11.916-5.352-11.916-11.916S33.292,0,39.856,0s11.915,5.351,11.915,11.915
					S46.42,23.831,39.856,23.831z M39.856,5.444c-3.578,0-6.472,2.894-6.472,6.471c0,3.578,2.894,6.472,6.472,6.472
					c3.577,0,6.471-2.894,6.471-6.472C46.327,8.338,43.433,5.444,39.856,5.444z"/>
			</g>
			<g>
				<path fill="#D35C2A" d="M56.656,61.258c-1.493,0-2.707-1.214-2.707-2.707V37.925c0-7.747-6.315-14.062-14.062-14.062
					c-7.747,0-14.062,6.315-14.062,14.062v20.626c0,1.493-1.214,2.707-2.707,2.707s-2.706-1.214-2.706-2.707V37.925
					c0-10.765,8.742-19.507,19.507-19.507c10.764,0,19.506,8.742,19.506,19.507v20.626C59.363,60.044,58.149,61.258,56.656,61.258z"
					/>
			</g>
		</g>
		<g>
			<g>
				<path fill="#D35C2A" d="M70.5,31.204c-5.569,0-10.111-4.542-10.111-10.111c0-5.568,4.542-10.11,10.111-10.11
					c5.568,0,10.11,4.542,10.11,10.11C80.611,26.662,76.1,31.204,70.5,31.204z M70.5,16.427c-2.583,0-4.667,2.084-4.667,4.666
					c0,2.583,2.084,4.667,4.667,4.667c2.582,0,4.666-2.084,4.666-4.667C75.167,18.511,73.083,16.427,70.5,16.427z"/>
			</g>
			<g>
				<path fill="#D35C2A" d="M84.002,61.258c-1.493,0-2.707-1.214-2.707-2.707V41.969c0-5.942-4.821-10.765-10.764-10.765
					s-10.765,4.822-10.765,10.765v16.582c0,1.493-1.214,2.707-2.707,2.707s-2.706-1.214-2.706-2.707V41.969
					c0-8.929,7.279-16.209,16.208-16.209c8.93,0,16.209,7.28,16.209,16.209v16.582C86.74,60.044,85.496,61.258,84.002,61.258z"/>
			</g>
		</g>
		<g>
			<g>
				<path fill="#D35C2A" d="M97.971,26.164c-6.253,0-11.355-5.071-11.355-11.324S91.718,3.484,97.971,3.484
					c6.254,0,11.355,5.103,11.355,11.355S104.225,26.164,97.971,26.164z M97.971,8.929c-3.267,0-5.911,2.645-5.911,5.911
					c0,3.235,2.645,5.911,5.911,5.911s5.911-2.645,5.911-5.911S101.238,8.929,97.971,8.929z"/>
			</g>
			<g>
				<path fill="#D35C2A" d="M111.971,61.258c-1.493,0-2.706-1.214-2.706-2.707V39.2c0-7.187-5.04-13.036-11.263-13.036
					c-6.222,0-11.263,5.85-11.263,13.036v19.351c0,1.493-1.213,2.707-2.706,2.707s-2.707-1.214-2.707-2.707V39.2
					c0-10.174,7.498-18.48,16.707-18.48s16.706,8.275,16.706,18.48v19.351C114.678,60.044,113.464,61.258,111.971,61.258z"/>
			</g>
		</g>
	</g>
</g>
</svg>
