<?xml version="1.0" encoding="utf-8"?>
<!-- Generator: Adobe Illustrator 16.0.4, SVG Export Plug-In . SVG Version: 6.00 Build 0)  -->
<!DOCTYPE svg PUBLIC "-//W3C//DTD SVG 1.1//EN" "http://www.w3.org/Graphics/SVG/1.1/DTD/svg11.dtd">
<svg version="1.1" id="crafts" xmlns="http://www.w3.org/2000/svg" xmlns:xlink="http://www.w3.org/1999/xlink" x="0px" y="0px"
	 width="46.994px" height="69.155px" viewBox="270.732 389.498 46.994 69.155"
	 enable-background="new 270.732 389.498 46.994 69.155" xml:space="preserve">
<path fill="#FFFFFF" stroke="#CBA9FF" stroke-miterlimit="10" d="M302.068,401.346c-0.003,0.023-0.006,0.051-0.009,0.074
	c-0.051,0.004-0.104,0.021-0.151,0.012c-0.685-0.143-1.367-0.287-2.052-0.434c-0.746-0.158-0.748-0.158-1.168,0.477
	c-0.033,0.049-0.065,0.096-0.096,0.145c-0.979,1.645-1.954,3.287-2.932,4.93c-0.909,1.525-1.818,3.053-2.729,4.578
	c-1.566,2.629-3.133,5.258-4.7,7.887c-1.374,2.305-2.751,4.605-4.123,6.91c-1.551,2.604-3.097,5.211-4.648,7.814
	c-1.392,2.332-2.792,4.654-4.181,6.988c-1.304,2.193-2.597,4.393-3.894,6.59c-0.255,0.434-0.205,0.598,0.245,0.826
	c1.432,0.73,2.865,1.453,4.295,2.186c1.989,1.016,3.975,2.037,5.965,3.051c0.896,0.455,1.806,0.885,2.701,1.344
	c2.164,1.109,4.322,2.23,6.485,3.342c0.334,0.172,0.567,0.098,0.723-0.271c0.305-0.727,0.636-1.441,0.951-2.166
	c1.232-2.832,2.469-5.666,3.695-8.502c1.169-2.705,2.325-5.416,3.494-8.121c1.088-2.516,2.188-5.027,3.275-7.543
	c1.31-3.027,2.615-6.057,3.916-9.086c0.91-2.119,1.805-4.246,2.715-6.365c1.081-2.518,2.167-5.033,3.266-7.545
	c0.124-0.285,0.058-0.463-0.146-0.648c-0.527-0.486-1.051-0.977-1.683-1.564c0.539,0.137,0.728-0.105,0.871-0.42
	c0.067-0.146,0.143-0.287,0.214-0.432c0.452-0.91,0.452-0.91-0.4-1.438c-0.1-0.061-0.189-0.137-0.293-0.189
	c-2.814-1.439-5.624-2.889-8.448-4.311c-1.136-0.57-1.064-0.869-1.784,0.58c-0.438,0.885-0.438,0.887,0.468,1.232
	c0.055,0.02,0.104,0.047,0.157,0.068V401.346z M311.928,392.114c-0.025-0.031-0.049-0.064-0.074-0.098
	c-0.305,0.109-0.719,0.125-0.898,0.342c-1.341,1.58-2.637,3.199-3.943,4.811c-0.614,0.756-1.228,1.512-1.836,2.271
	c-0.345,0.43-0.31,0.562,0.181,0.822c0.388,0.205,0.767,0.426,1.156,0.619c1.135,0.572,2.275,1.131,3.41,1.703
	c0.4,0.203,0.587,0.152,0.699-0.27c0.776-2.945,1.553-5.893,2.309-8.844c0.05-0.191-0.018-0.459-0.123-0.637
	c-0.235-0.398-0.238-0.559,0.195-0.721c0.211-0.078,0.518-0.092,0.709,0.006c0.437,0.223,0.848,0.508,1.235,0.811
	c0.501,0.391,1.003,0.42,1.549,0.125c0.416-0.225,0.712-0.895,0.729-1.404c0.036-1.076-1.833-1.939-2.925-1.564
	C313.241,390.45,312.539,391.229,311.928,392.114L311.928,392.114z"/>
<g>
	<path fill="#8C5CA0" stroke="#8C5CA0" stroke-miterlimit="10" d="M302.068,401.346c-0.053-0.023-0.104-0.051-0.156-0.07
		c-0.905-0.348-0.904-0.352-0.468-1.234c0.72-1.449,0.648-1.15,1.784-0.578c2.824,1.42,5.634,2.869,8.448,4.311
		c0.104,0.053,0.193,0.129,0.293,0.188c0.854,0.527,0.854,0.527,0.4,1.438c-0.071,0.145-0.146,0.285-0.214,0.434
		c-0.145,0.311-0.332,0.557-0.87,0.418c0.632,0.588,1.153,1.08,1.682,1.566c0.203,0.186,0.271,0.361,0.146,0.646
		c-1.099,2.512-2.185,5.027-3.266,7.547c-0.91,2.119-1.805,4.244-2.715,6.363c-1.301,3.031-2.605,6.061-3.915,9.088
		c-1.088,2.516-2.188,5.025-3.276,7.541c-1.169,2.705-2.323,5.416-3.494,8.121c-1.227,2.836-2.463,5.67-3.695,8.504
		c-0.314,0.723-0.646,1.438-0.951,2.166c-0.154,0.367-0.389,0.443-0.723,0.271c-2.162-1.113-4.321-2.232-6.485-3.342
		c-0.896-0.459-1.805-0.889-2.701-1.346c-1.99-1.012-3.976-2.035-5.965-3.051c-1.43-0.73-2.863-1.455-4.295-2.186
		c-0.45-0.229-0.5-0.393-0.245-0.824c1.297-2.197,2.59-4.398,3.894-6.592c1.389-2.332,2.789-4.656,4.181-6.986
		c1.553-2.605,3.099-5.211,4.648-7.816c1.373-2.303,2.749-4.605,4.123-6.91c1.567-2.627,3.135-5.258,4.7-7.885
		c0.91-1.527,1.819-3.053,2.729-4.58c0.978-1.641,1.954-3.285,2.932-4.928c0.029-0.049,0.062-0.098,0.096-0.146
		c0.42-0.635,0.422-0.635,1.168-0.475c0.685,0.145,1.367,0.289,2.052,0.432c0.049,0.012,0.102-0.006,0.151-0.012
		C302.063,401.397,302.065,401.372,302.068,401.346L302.068,401.346z M291.175,457.262c0.268-0.609,0.521-1.18,0.767-1.752
		c0.604-1.4,1.2-2.809,1.81-4.209c0.625-1.441,1.266-2.879,1.891-4.32c0.621-1.438,1.229-2.881,1.848-4.318
		c0.606-1.406,1.223-2.809,1.832-4.213c0.645-1.48,1.289-2.961,1.929-4.445c0.453-1.057,0.896-2.117,1.346-3.176
		c0.385-0.906,0.766-1.816,1.164-2.717c0.275-0.623,0.596-1.227,0.865-1.852c0.664-1.535,1.308-3.078,1.964-4.617
		c0.434-1.016,0.874-2.029,1.312-3.045c0.612-1.416,1.22-2.836,1.839-4.25c0.396-0.898,0.821-1.787,1.212-2.689
		c0.433-1.002,0.824-2.021,1.268-3.018c0.117-0.266,0.07-0.445-0.112-0.609c-0.445-0.406-0.895-0.811-1.36-1.193
		c-1.297-1.061-2.755-1.871-4.23-2.652c-2.1-1.109-4.287-1.973-6.633-2.398c-0.148-0.027-0.384-0.021-0.459,0.068
		c-0.24,0.287-0.438,0.613-0.628,0.938c-0.832,1.418-1.646,2.846-2.486,4.26c-0.728,1.225-1.489,2.426-2.22,3.646
		c-0.574,0.959-1.125,1.932-1.685,2.898c-0.227,0.393-0.437,0.793-0.672,1.178c-0.576,0.941-1.18,1.865-1.743,2.814
		c-0.797,1.338-1.552,2.701-2.351,4.037c-1.223,2.045-2.469,4.076-3.701,6.115c-0.917,1.518-1.835,3.035-2.738,4.559
		c-0.921,1.553-1.821,3.113-2.735,4.668c-0.568,0.965-1.144,1.928-1.717,2.889c-0.59,0.984-1.188,1.963-1.774,2.947
		c-0.588,0.986-1.166,1.98-1.752,2.969c-0.345,0.582-0.696,1.16-1.057,1.762C278.523,450.79,284.832,454.018,291.175,457.262
		L291.175,457.262z M311.846,404.727c-3.146-1.607-6.272-3.207-9.438-4.824c-0.109,0.26-0.189,0.449-0.273,0.65
		c3.402,1.098,6.511,2.656,9.379,4.783C311.623,405.133,311.72,404.959,311.846,404.727L311.846,404.727z"/>
	<path fill="#8C5CA0" stroke="#8C5CA0" stroke-miterlimit="10" d="M311.928,392.116c0.611-0.885,1.314-1.664,2.371-2.027
		c1.092-0.377,2.961,0.486,2.925,1.562c-0.017,0.512-0.312,1.182-0.729,1.404c-0.546,0.295-1.049,0.266-1.55-0.125
		c-0.388-0.303-0.799-0.588-1.234-0.811c-0.191-0.098-0.498-0.084-0.709-0.006c-0.435,0.162-0.433,0.32-0.195,0.721
		c0.105,0.178,0.173,0.443,0.123,0.637c-0.756,2.951-1.531,5.896-2.309,8.844c-0.112,0.424-0.3,0.475-0.699,0.271
		c-1.135-0.574-2.275-1.133-3.41-1.703c-0.391-0.197-0.77-0.416-1.156-0.621c-0.489-0.26-0.524-0.393-0.181-0.822
		c0.608-0.762,1.222-1.518,1.836-2.271c1.308-1.609,2.603-3.229,3.943-4.811c0.181-0.217,0.595-0.232,0.898-0.342
		C311.878,392.051,311.903,392.084,311.928,392.116L311.928,392.116z M309.996,401.772c0.207-0.836,0.396-1.637,0.603-2.434
		c0.499-1.924,0.991-3.848,1.524-5.762c0.089-0.32-0.04-0.418-0.237-0.555c-0.241-0.166-0.415-0.109-0.593,0.119
		c-0.405,0.523-0.833,1.031-1.251,1.549c-1.35,1.66-2.697,3.324-4.061,5.006c0.73,0.391,1.433,0.771,2.142,1.141
		C308.729,401.149,309.343,401.444,309.996,401.772L309.996,401.772z M313.852,391.245c0.525,0.342,1.081,0.621,1.523,1.021
		c0.298,0.271,0.528,0.223,0.762,0.062c0.275-0.189,0.416-0.51,0.27-0.838C316.041,390.682,314.407,390.555,313.852,391.245
		L313.852,391.245z"/>
	<g>
		<path fill="#FFFFFF" stroke="#8C5CA0" stroke-miterlimit="10" d="M291.175,457.262c-6.343-3.244-12.652-6.473-19.015-9.727
			c0.359-0.604,0.712-1.18,1.057-1.762c0.586-0.988,1.164-1.982,1.752-2.969c0.588-0.984,1.186-1.965,1.774-2.947
			c0.574-0.961,1.147-1.924,1.716-2.891c0.914-1.553,1.815-3.113,2.735-4.666c0.904-1.523,1.822-3.043,2.739-4.559
			c1.232-2.039,2.479-4.07,3.7-6.115c0.8-1.338,1.555-2.701,2.351-4.039c0.563-0.947,1.167-1.873,1.743-2.812
			c0.236-0.387,0.446-0.785,0.672-1.178c0.561-0.969,1.11-1.941,1.685-2.9c0.73-1.221,1.494-2.422,2.221-3.646
			c0.84-1.412,1.654-2.84,2.486-4.258c0.19-0.324,0.387-0.652,0.628-0.938c0.075-0.092,0.311-0.098,0.46-0.07
			c2.345,0.428,4.531,1.289,6.631,2.4c1.477,0.779,2.935,1.59,4.232,2.65c0.466,0.383,0.914,0.787,1.36,1.193
			c0.183,0.164,0.229,0.344,0.111,0.609c-0.441,0.996-0.835,2.016-1.269,3.018c-0.39,0.902-0.815,1.791-1.211,2.689
			c-0.618,1.414-1.227,2.834-1.838,4.25c-0.438,1.016-0.879,2.029-1.312,3.045c-0.656,1.539-1.3,3.082-1.963,4.617
			c-0.271,0.625-0.591,1.229-0.866,1.852c-0.398,0.9-0.778,1.811-1.164,2.717c-0.45,1.059-0.892,2.119-1.347,3.176
			c-0.639,1.484-1.283,2.965-1.928,4.445c-0.609,1.404-1.226,2.807-1.831,4.213c-0.619,1.438-1.227,2.881-1.85,4.318
			c-0.624,1.441-1.265,2.879-1.891,4.32c-0.607,1.4-1.204,2.809-1.81,4.209C291.695,456.083,291.442,456.651,291.175,457.262
			L291.175,457.262z"/>
		<path fill="#FFFFFF" stroke="#8C5CA0" stroke-miterlimit="10" d="M311.846,404.727c-0.127,0.232-0.222,0.406-0.333,0.609
			c-2.867-2.127-5.976-3.686-9.379-4.783c0.085-0.201,0.165-0.391,0.274-0.65C305.573,401.52,308.698,403.118,311.846,404.727
			L311.846,404.727z"/>
		<path fill="#FFFFFF" stroke="#8C5CA0" stroke-miterlimit="10" d="M309.996,401.77c-0.654-0.324-1.27-0.621-1.873-0.934
			c-0.709-0.367-1.41-0.75-2.142-1.141c1.362-1.682,2.711-3.346,4.061-5.008c0.418-0.516,0.845-1.021,1.251-1.547
			c0.177-0.229,0.352-0.285,0.593-0.119c0.197,0.137,0.326,0.232,0.237,0.555c-0.533,1.914-1.025,3.838-1.524,5.76
			C310.393,400.133,310.203,400.934,309.996,401.77L309.996,401.77z"/>
		<path fill="#FFFFFF" stroke="#8C5CA0" stroke-miterlimit="10" d="M313.852,391.243c0.558-0.688,2.189-0.562,2.554,0.25
			c0.147,0.328,0.008,0.645-0.269,0.836c-0.232,0.16-0.464,0.207-0.762-0.062C314.933,391.864,314.378,391.586,313.852,391.243
			L313.852,391.243z"/>
	</g>
</g>
</svg>
