<?xml version="1.0"?>
<!--Icons from directory ""-->
<svg xmlns="http://www.w3.org/2000/svg" width="59" height="48" viewBox="0 0 59 48"><svg xmlns:xlink="http://www.w3.org/1999/xlink" id="food" xml:space="preserve" height="48" viewBox="0 0 58.56 47.502" width="59" version="1.1" y="0" x="0px" enable-background="new 0 0 58.56 47.502"><g fill="#d35c2a">	<path d="m56.914 5.526c-0.085-0.079-0.17-0.157-0.255-0.236 0.253-0.292 0.666-0.502 0.967-0.742 0.468-0.374 0.716-0.586 0.898-1.165 0.146-0.465-0.243-0.851-0.675-0.886-1.145-0.093-2.286-0.133-3.432-0.143-0.065-0.721-0.309-1.374-0.753-2.003-0.229-0.326-0.796-0.526-1.099-0.142-0.933 1.185-1.604 2.446-2.054 3.868-1.798-0.842-4.021-1.143-5.565-0.943-2.648 0.342-5.049 2.018-7.479 2.979-3.007 1.19-6.028 1.826-9.28 1.754-3.299-0.073-5.876-0.887-8.841-2.314-1.738-0.837-3.427-1.803-5.383-2.039-1.978-0.238-3.864 0.328-5.309 1.486-0.549-1.587-1.703-4.985-3.517-2.917-0.429 0.488-0.569 1.184-1.233 1.367-0.439 0.122-0.896-0.04-1.332 0.216-1.043 0.612-0.579 1.652-0.472 2.598-1.015 0.593-2.741 1.274-1.855 2.712 0.364 0.591 1.054 0.668 1.676 0.68 1.375 0.026 2.77-0.088 4.149-0.149-1.315 7.833 10.945 11.68 16.916 12.703-0.436 3.011-0.597 6.396 0.396 8.84 1.004 2.471 3.521 3.61 3.467 6.682-0.055 3.029 0.082 6.069-0.056 9.096-0.04 0.9 1.359 0.898 1.4 0 0.128-2.832-0.032-5.665 0.031-8.498 0.044-1.971 0.014-3.243-1.19-4.848-1.805-2.405-2.902-4.175-2.81-7.339 0.062-2.103 0.229-4.311 0.617-6.392 0.94 0.074 1.89 0.007 2.828-0.132-0.028 2.525 0.017 5.072 0.293 7.58 0.151 1.371 0.769 2.92 2.45 2.726 3.681-0.424 2.75-7.635 2.37-10.525 0.996-0.038 1.988-0.123 2.972-0.275 0.862 4.149 1.631 9.709-1.111 13.012-1.429 1.72-2.295 2.415-2.233 4.76 0.086 3.31-0.084 6.624 0.062 9.932 0.039 0.897 1.439 0.902 1.4 0-0.076-1.732-0.041-3.444 0.002-5.177 0.041-1.65-0.351-3.67-0.099-5.278 0.429-2.735 3.332-3.969 3.889-6.638 0.489-2.348 0.363-5.085 0.008-7.687 4.303-1.027 8.775-2.883 12.182-5.742 2.02-1.694 3.975-5.213 3.749-8.16 1.382 0.041 2.718 0.272 4.045 0.721 0.345 0.117 0.783-0.135 0.861-0.489 0.287-1.313-0.71-2.032-1.595-2.853zm-17.552 1.287c0.429 0.414 0.857 0.834 1.229 1.3 0.25 0.313 0.483 0.652 0.663 1.012 0.132 0.255 0.232 0.521 0.302 0.799 0.165 0.332 0.065 0.489-0.297 0.471-0.733 0.329-1.602-0.754-2.062-1.219-0.534-0.539-1.066-1.081-1.599-1.622 0.081-0.031 0.162-0.058 0.242-0.09 0.516-0.202 1.022-0.424 1.522-0.651zm-9.082 2.395c-0.005 0.121 0.016 0.248 0.101 0.38 0.292 0.448 0.563 0.905 0.796 1.386 0.154 0.32 0.497 0.891 0.539 1.344-0.835 0.108-1.883-1.267-2.237-1.756-0.301-0.415-0.566-0.854-0.821-1.299 0.04 0 0.079 0.002 0.119 0.002 0.507-0.001 1.006-0.025 1.503-0.057zm-10.355-1.802c0.003 0.011 0.001 0.019 0.005 0.03 0.298 0.81 0.648 1.67 0.711 2.541 0.039 0.533 0.22 1.568-0.491 0.821-0.304-0.319-0.556-0.712-0.806-1.073-0.773-1.117-1.416-2.307-1.948-3.552 0.871 0.411 1.723 0.852 2.529 1.233zm-17.933 0.448c0.301-0.359 1.021-0.316 1.324-0.731 0.227-0.31 0.221-0.587 0.186-0.96-0.021-0.217-0.288-0.777-0.205-0.97 0.213-0.496 0.624-0.31 1.003-0.35 0.373-0.039 0.744-0.121 1.042-0.369 0.37-0.311 0.537-1.391 1.218-0.957 0.418 0.266 0.739 1.885 0.925 2.359 0.027 0.072 0.071 0.124 0.113 0.178-0.483 0.596-0.876 1.282-1.156 2.045-0.015 0-0.025-0.007-0.041-0.007-0.934 0.034-1.867 0.068-2.801 0.102-0.408 0.015-2.123 0.275-1.608-0.34zm29.011 20.166c-1.866 1.464-1.742-2.073-1.79-2.86-0.045-0.744-0.067-1.488-0.092-2.232 0.828 0.039 1.646 0.005 2.472-0.106 0.01 0.408 0.037 0.816 0.032 1.226-0.012 0.977 0.186 3.339-0.622 3.972zm16.104-11.5c-2.965 1.942-6.217 3.299-9.646 4.14-0.104-0.617-0.218-1.216-0.336-1.797 0.02-0.005 0.04-0.007 0.061-0.012 0.877-0.203 0.506-1.554-0.373-1.35-1.835 0.426-3.71 0.531-5.589 0.525-0.901-0.003-0.902 1.397 0 1.4 0.048 0 0.096-0.003 0.144-0.003 0.074 0.678 0.147 1.355 0.189 2.035-0.076-0.007-0.155-0.009-0.234 0.002-0.742 0.104-1.491 0.111-2.238 0.07-0.012-0.732-0.014-1.466-0.005-2.199 0.646-0.312 0.279-1.445-0.536-1.28-1.567 0.315-3.202 0.519-4.771 0.113-0.873-0.226-1.245 1.125-0.372 1.351 0.017 0.004 0.034 0.006 0.051 0.011-0.083 0.418-0.163 0.852-0.243 1.306-3.394-0.574-6.644-1.522-9.704-3.161-3.905-2.09-8.451-6.606-4.568-11.038 1.979-2.258 4.365-2.063 6.718-1.2-0.003 0.083 0.006 0.17 0.043 0.267 0.524 1.388 1.153 2.726 1.943 3.984 0.584 0.928 1.359 2.35 2.424 2.807 0.86 0.37 1.588-0.078 1.846-0.952 0.329-1.117 0.095-2.302-0.259-3.409 1.744 0.626 3.531 0.957 5.369 1.078 0.967 1.786 2.397 4.446 4.664 4.502 2.711 0.068 0.831-3.357 0.023-4.642 1.512-0.194 2.989-0.532 4.455-1.007 0.023 0.033 0.034 0.068 0.065 0.099 1.19 1.208 4.179 5.252 6.271 3.362 1.61-1.457-0.439-3.948-1.78-5.329 2.597-1.185 5.134-2.186 8.158-1.106 6.124 2.187 1.858 9.057-1.77 11.433zm6.194-9.8c-0.29-0.765-0.85-1.4-1.556-1.918 0.278-0.986 0.665-1.886 1.196-2.729 0.078 0.299 0.109 0.614 0.089 0.972-0.021 0.376 0.338 0.702 0.7 0.7 0.896-0.006 1.788 0.023 2.68 0.068-0.636 0.403-1.408 0.741-1.37 1.516 0.037 0.734 1.128 1.25 1.735 1.827-1.136-0.279-2.288-0.408-3.469-0.415-0.001-0.008-0.003-0.015-0.005-0.021z"/>	<path d="m19.111 17.371c-2.894-0.999-5.462-2.566-7.683-4.672-0.654-0.62-1.646 0.368-0.99 0.99 2.396 2.272 5.18 3.955 8.301 5.033 0.853 0.295 1.219-1.058 0.372-1.351z"/>	<path d="m9.313 10.304c-0.901 0-0.902 1.4 0 1.4 0.9 0 0.902-1.4 0-1.4z"/></g></svg></svg>
