<?xml version="1.0" encoding="utf-8"?>
<!-- Generator: Adobe Illustrator 16.0.4, SVG Export Plug-In . SVG Version: 6.00 Build 0)  -->
<!DOCTYPE svg PUBLIC "-//W3C//DTD SVG 1.1//EN" "http://www.w3.org/Graphics/SVG/1.1/DTD/svg11.dtd">
<svg version="1.1" id="support" xmlns="http://www.w3.org/2000/svg" xmlns:xlink="http://www.w3.org/1999/xlink" x="0px" y="0px"
	 width="137.693px" height="124.002px" viewBox="352.153 235.5 137.693 124.002"
	 enable-background="new 352.153 235.5 137.693 124.002" xml:space="preserve">
<path fill="#D35C2A" d="M420.65,328.502c-8.074,0-13.723-4.715-14.018-4.964l-17.565-15.095c-0.591-0.545-3.236-3.205-2.287-5.57
	c0.918-2.303,4.341-2.303,5.477-2.303c3.765,0,37.309-0.171,37.651-0.171c0.746,0,1.353,0.606,1.353,1.354
	c0,0.746-0.606,1.368-1.353,1.368c-0.343,0-33.887,0.171-37.651,0.171c-2.552,0-2.94,0.576-2.94,0.592
	c-0.141,0.326,0.606,1.633,1.586,2.552l17.504,15.044c0.062,0.062,7.655,6.348,17.238,3.61c10.316-2.956,20.18-5.929,20.273-5.958
	c0.124-0.047,0.264-0.062,0.389-0.062h7.763c0.747,0,1.354,0.607,1.354,1.354s-0.607,1.354-1.354,1.354h-7.562
	c-1.431,0.436-10.579,3.189-20.117,5.912c-2.006,0.564-3.934,0.799-5.739,0.799L420.65,328.502z"/>
<path fill="#D35C2A" d="M431.541,317.145h-19.852c-0.047,0-0.095,0-0.156-0.016c-0.965-0.109-4.154-0.622-4.776-2.785
	c-0.374-1.322,0.342-2.707,2.146-4.123c4.886-3.811,19.868-9.506,20.507-9.754c0.139-0.062,3.826-1.463,7.763-1.463
	c3.128,0,9.241,3.422,10.845,4.355h6.052c0.747,0,1.354,0.607,1.354,1.354s-0.607,1.353-1.354,1.353h-6.425
	c-0.25,0-0.483-0.062-0.701-0.186c-2.722-1.618-7.779-4.17-9.785-4.17c-3.438,0-6.753,1.275-6.783,1.275
	c-0.156,0.062-15.247,5.787-19.806,9.352c-0.887,0.684-1.12,1.104-1.183,1.244c0.28,0.295,1.4,0.684,2.35,0.793h19.417l3.78-2.146
	c0.654-0.374,1.479-0.141,1.852,0.513s0.14,1.478-0.514,1.851l-4.092,2.318c-0.167,0.171-0.4,0.236-0.634,0.236L431.541,317.145z"/>
<path fill="#D35C2A" stroke="#231F20" stroke-width="3" stroke-linecap="round" stroke-linejoin="round" stroke-miterlimit="10" d="
	M397.345,301.912"/>
<path fill="#D35C2A" d="M406.29,311.215c-0.265,0-0.544-0.078-0.778-0.249l-10.766-7.593c-0.607-0.436-0.763-1.275-0.327-1.898
	c0.436-0.605,1.276-0.762,1.898-0.326l10.767,7.594c0.606,0.436,0.762,1.275,0.326,1.896
	C407.146,311.014,406.727,311.215,406.29,311.215z"/>
<path fill="#D35C2A" d="M412.514,307.715c-0.265,0-0.513-0.078-0.746-0.219l-6.8-4.48c-0.622-0.42-0.794-1.26-0.389-1.883
	c0.421-0.623,1.261-0.793,1.883-0.389l6.799,4.48c0.622,0.42,0.794,1.26,0.39,1.883
	C413.385,307.512,412.965,307.715,412.514,307.715z"/>
<path fill="#D35C2A" d="M418.535,305.412c-0.265,0-0.529-0.078-0.763-0.234l-3.128-2.131c-0.621-0.42-0.777-1.275-0.357-1.898
	c0.42-0.621,1.276-0.777,1.898-0.357l3.127,2.131c0.623,0.42,0.778,1.276,0.357,1.898
	C419.406,305.209,418.971,305.412,418.535,305.412z"/>
<path fill="#D35C2A" d="M406.508,278.418c-3.282,0-5.959-2.676-5.959-5.959s2.677-5.959,5.959-5.959
	c3.283,0,5.959,2.676,5.959,5.959S409.791,278.418,406.508,278.418z M406.508,269.223c-1.789,0-3.236,1.447-3.236,3.236
	s1.447,3.236,3.236,3.236s3.236-1.447,3.236-3.236S408.297,269.223,406.508,269.223z"/>
<path fill="#D35C2A" d="M414.91,297.135c-0.747,0-1.354-0.607-1.354-1.354v-10.314c0-3.875-3.157-7.033-7.032-7.033
	c-3.874,0-7.032,3.158-7.032,7.033v10.314c0,0.746-0.606,1.354-1.354,1.354s-1.354-0.607-1.354-1.354v-10.314
	c0-5.384,4.372-9.756,9.756-9.756c5.383,0,9.755,4.372,9.755,9.756v10.314C416.264,296.527,415.656,297.135,414.91,297.135z"/>
<path fill="#D35C2A" d="M421.833,282.105c-2.785,0-5.057-2.271-5.057-5.057s2.271-5.057,5.057-5.057
	c2.784,0,5.056,2.271,5.056,5.057C426.89,279.834,424.633,282.105,421.833,282.105z M421.833,274.715
	c-1.292,0-2.334,1.043-2.334,2.334s1.042,2.334,2.334,2.334c1.291,0,2.333-1.043,2.333-2.334
	C424.167,275.758,423.125,274.715,421.833,274.715z"/>
<path fill="#D35C2A" d="M428.585,297.135c-0.747,0-1.354-0.607-1.354-1.354v-8.293c0-2.971-2.411-5.383-5.383-5.383
	s-5.384,2.411-5.384,5.383v8.293c0,0.746-0.607,1.354-1.354,1.354c-0.747,0-1.354-0.607-1.354-1.354v-8.293
	c0-4.465,3.641-8.105,8.105-8.105c4.466,0,8.105,3.641,8.105,8.105v8.293C429.954,296.527,429.332,297.135,428.585,297.135z"/>
<path fill="#D35C2A" d="M435.57,279.584c-3.127,0-5.678-2.535-5.678-5.662s2.551-5.68,5.678-5.68c3.128,0,5.679,2.553,5.679,5.68
	c0,3.126-2.556,5.662-5.681,5.662H435.57z M435.57,270.966c-1.633,0-2.955,1.323-2.955,2.956c0,1.617,1.322,2.956,2.955,2.956
	c1.634,0,2.957-1.323,2.957-2.956s-1.32-2.956-2.955-2.956H435.57z"/>
<path fill="#D35C2A" d="M442.571,297.135c-0.746,0-1.353-0.607-1.353-1.354v-9.678c0-3.594-2.521-6.52-5.633-6.52
	c-3.111,0-5.633,2.926-5.633,6.52v9.678c0,0.746-0.606,1.354-1.354,1.354c-0.746,0-1.354-0.607-1.354-1.354v-9.678
	c0-5.088,3.75-9.241,8.355-9.241s8.354,4.138,8.354,9.241v9.678c-0.025,0.746-0.636,1.354-1.38,1.354H442.571z"/>
</svg>
